<svg xmlns="http://www.w3.org/2000/svg" viewBox="0 0 753.6 548"><defs><style>.cls-1{fill:#36a9e1;}.cls-2{fill:#0077b6;}</style></defs><g id="Capa_4" data-name="Capa 4"><path class="cls-1" d="M95.6,417.3c-8.5-8.1-12.8-18.5-12.8-31.1V386c0-12.4,4.2-22.7,12.7-30.9s18.6-12.3,30.9-12.3c16.9,0,29.2,7.1,37.1,21.5l-22.6,13.4c-3.3-6.7-8.3-10.1-14.9-10.1a14.1,14.1,0,0,0-11.1,5.3,19.5,19.5,0,0,0-4.2,12.8v.3c0,5.4,1.4,9.8,4.3,13.2a13.6,13.6,0,0,0,11,5.1c6.5,0,11.7-3.5,15.5-10.4l22.6,12.9q-12.4,22.3-38.8,22.4C113.5,429.2,103.6,425.2,95.6,417.3Z"/><path class="cls-1" d="M178.1,416.7a40.6,40.6,0,0,1-12.9-30.5V386a41,41,0,0,1,13-30.7c8.6-8.4,19.2-12.5,31.8-12.5s23.2,4.1,31.9,12.4a40.9,40.9,0,0,1,12.8,30.5v.3a41.3,41.3,0,0,1-12.9,30.6c-8.7,8.4-19.4,12.6-32,12.6S186.7,425,178.1,416.7Zm44.4-17.6a19.5,19.5,0,0,0,4.5-12.9V386c0-5.3-1.5-9.6-4.6-13.1a15.9,15.9,0,0,0-12.6-5.6,15.5,15.5,0,0,0-12.4,5.5,19.1,19.1,0,0,0-4.6,12.9v.3a18.9,18.9,0,0,0,4.7,13,16.7,16.7,0,0,0,25,.1Z"/><path class="cls-1" d="M254.8,414.9l14.7-17.6a44.9,44.9,0,0,0,28.7,9.7c4.6,0,7-1.2,7-3.5v-.3q0-3.1-11.4-5.4c-11-2.2-19-4.9-24.1-8.2-7-4.4-10.4-10.6-10.4-18.4v-.3c0-8.2,2.9-14.8,8.9-19.9s15-8,25.9-8c15.2,0,27.5,3.8,37,11.4l-13.4,18.7a39.8,39.8,0,0,0-24.6-8.2c-4,0-6,1.1-6,3.4v.3c0,2.1,3.7,3.9,10.9,5.3,11.8,2.1,20.2,5,25.5,8.5s9.6,10.4,9.6,18.2v.3a24.9,24.9,0,0,1-9.9,20.6c-6.4,4.9-15.2,7.4-26.3,7.4C279.3,428.9,265.3,424.3,254.8,414.9Z"/><path class="cls-1" d="M338.7,390.2V344.5h27.9v45.4c0,9.7,4.2,14.6,12.6,14.6s12.7-4.7,12.7-14v-46h27.9v45.1q0,39.4-40.8,39.4T338.7,390.2Z"/><path class="cls-1" d="M428.5,344.5h36.9c11.1,0,20,2.5,26.4,7.4S502,364.5,502,374v.2c0,9.8-3.4,17.4-10.3,22.9s-15.6,7.8-26.9,7.8h-8.9v22.5H428.5Zm34.8,40.6c7.8,0,11.7-3,11.7-9.1v-.2c0-6.1-3.9-9.1-11.6-9.1h-7.5v18.4Z"/><path class="cls-1" d="M528.3,343.9h27.2L590,427.4H560.3l-4.4-11.1H527.2L523,427.4H493.7Zm20.8,52.7-7.5-20.1-7.5,20.1Z"/><path class="cls-1" d="M575.7,344.5h30.7l16,46.5,15.9-46.5h30.2L635.3,428H609Z"/><path class="cls-1" d="M518.4,249c-7.1,8-15,15.7-21.2,22.6l-58.4-57.3,58.6-56.7,21,22.5c-12.8,12.2-24.1,22.9-36.6,35.2C495.9,228.7,505,236.6,518.4,249Z"/><path class="cls-2" d="M328.1,209.5c4.3-3.9,13-10.6,26.8-16.3A69.8,69.8,0,0,1,367.4,170c18.7-22.9,54.7-35.9,91.6-14.1,7.5-7.6,15-15.1,22.4-22.7-33.6-31.7-97-27.4-132.7,9a102.9,102.9,0,0,0-29.1,63A81.5,81.5,0,0,1,328.1,209.5Z"/><path class="cls-2" d="M458.7,273.6c-38,17.9-70.9,12.2-92.8-16.5a66.8,66.8,0,0,1-10.2-18.9,179,179,0,0,0-10,16.5l-3.1,5.6-4.7-4.3-6.6-6.4c-2.8-2.7-5.6-5.5-8.6-8.2a101.5,101.5,0,0,0,23.9,43.3c35.6,38.3,98.5,43.6,135,11.2Z"/><path class="cls-1" d="M341.3,252.3c-19.5-18.1-37.6-45-106.2-38.7,51.3-28.1,93.7,2.2,93.7,2.2s33.1-37.3,110.9-25.5C391.4,200.3,367.8,203.2,341.3,252.3Z"/><path class="cls-2" d="M433.2,480.3a13.7,13.7,0,0,1-3.9-9.8h0a13.4,13.4,0,0,1,4-9.8,14.3,14.3,0,0,1,10.6-4.2c5.7,0,9.8,2.5,12.1,7.4l-8,4.5q-1.5-2.7-3.9-2.7a3.9,3.9,0,0,0-3,1.4,4.7,4.7,0,0,0-1.1,3.3h0a5.2,5.2,0,0,0,1.1,3.5,3.4,3.4,0,0,0,2.8,1.3,4.8,4.8,0,0,0,4.2-2.7l8,4.6c-2.6,4.9-6.8,7.3-12.8,7.3A13.8,13.8,0,0,1,433.2,480.3Z"/><path class="cls-2" d="M460.5,480.3a13.2,13.2,0,0,1-4.2-9.8h0a13,13,0,0,1,4.3-9.9,16.1,16.1,0,0,1,21.5,0,13.2,13.2,0,0,1,4.2,9.8h0a13.2,13.2,0,0,1-4.2,9.8,14.8,14.8,0,0,1-10.8,4.2A15.3,15.3,0,0,1,460.5,480.3Zm13.9-6.5a4.4,4.4,0,0,0,1.3-3.3h0a5.1,5.1,0,0,0-1.3-3.4,4.1,4.1,0,0,0-3.1-1.4,4,4,0,0,0-3.1,1.4,4.6,4.6,0,0,0-1.2,3.3h0a5.2,5.2,0,0,0,1.2,3.4,4.1,4.1,0,0,0,3.2,1.3A3.8,3.8,0,0,0,474.4,473.8Z"/><path class="cls-2" d="M490.3,482.2a7.4,7.4,0,0,1-2.5-6h0a7.5,7.5,0,0,1,2.7-6.2,12.4,12.4,0,0,1,7.5-2.2,18,18,0,0,1,6.3,1v-.4c0-2.6-1.7-3.9-4.9-3.9a19.6,19.6,0,0,0-7.4,1.5l-2-7.4a31.5,31.5,0,0,1,11.3-1.9c5.2,0,8.9,1.1,11.3,3.5s2.8,4.6,2.8,8.4v15.2H504.2V481a9.7,9.7,0,0,1-7.6,3.4A8.8,8.8,0,0,1,490.3,482.2Zm13.1-5.4a3.9,3.9,0,0,0,1-2.9v-1.2a6.8,6.8,0,0,0-2.6-.4c-2.2,0-3.4,1-3.4,3h0a2.2,2.2,0,0,0,.8,1.8,2.3,2.3,0,0,0,1.8.8A3,3,0,0,0,503.4,476.8Z"/><path class="cls-2" d="M521.6,480.3a13.7,13.7,0,0,1-3.9-9.8h0a13.4,13.4,0,0,1,4-9.8,14.2,14.2,0,0,1,10.5-4.2c5.8,0,9.8,2.5,12.1,7.4l-8,4.5a4.2,4.2,0,0,0-3.9-2.7,3.8,3.8,0,0,0-2.9,1.4,4.8,4.8,0,0,0-1.2,3.3h0a5.3,5.3,0,0,0,1.2,3.5,3.3,3.3,0,0,0,2.8,1.3c1.6,0,3-.9,4.1-2.7l8.1,4.6c-2.6,4.9-6.9,7.3-12.8,7.3A13.8,13.8,0,0,1,521.6,480.3Z"/><path class="cls-2" d="M546.2,448h11.1v12.6a10.3,10.3,0,0,1,8.2-4.2,8.7,8.7,0,0,1,6.7,2.6,10.4,10.4,0,0,1,2.5,7.1v17.6H563.6v-14a4,4,0,0,0-.9-2.7,3.1,3.1,0,0,0-4.4,0,4.1,4.1,0,0,0-1,2.7v14H546.2Z"/><path class="cls-2" d="M577.7,448h11.5v7.1H577.7Zm.2,9H589v26.7H577.9Z"/><path class="cls-2" d="M592.4,457h11.1v3.7c2.3-2.9,5-4.3,8.2-4.3a8.7,8.7,0,0,1,6.7,2.6,10.4,10.4,0,0,1,2.5,7.1v17.6H609.7v-14a4,4,0,0,0-.8-2.7,3.1,3.1,0,0,0-4.4,0,4.1,4.1,0,0,0-1,2.7v14H592.4Z"/><path class="cls-2" d="M623.4,488.3l3.4-6.7a20.5,20.5,0,0,0,9.7,2.6c4.2,0,6.3-2,6.3-5.9v-.8a9.7,9.7,0,0,1-7.7,3.7,11.2,11.2,0,0,1-8.5-3.4,12.1,12.1,0,0,1-3.4-8.9h0a12.8,12.8,0,0,1,3.3-9,10.4,10.4,0,0,1,8-3.4,10.5,10.5,0,0,1,8.1,3.5V457h11.1v20c0,4.8-1.1,8.4-3.4,10.7s-6.7,4-12.1,4A31.9,31.9,0,0,1,623.4,488.3Zm18.3-16.5a3.7,3.7,0,0,0,1.2-2.9h0a3.8,3.8,0,0,0-1.3-3,4.2,4.2,0,0,0-3.2-1.2,4.4,4.4,0,0,0-3.2,1.2,4.3,4.3,0,0,0-1.2,3.1h0a4,4,0,0,0,1.2,2.9,4.4,4.4,0,0,0,3.2,1.2A4.2,4.2,0,0,0,641.7,471.8Z"/></g></svg>