<svg xmlns="http://www.w3.org/2000/svg" viewBox="0 0 1275.59 1275.59"><defs><style>.cls-1{fill:#0077b6;}</style></defs><g id="Capa_4" data-name="Capa 4"><path class="cls-1" d="M172.09,657.34Q150.73,637,150.74,605.29v-.39q0-30.89,21.16-51.66,21-20.58,51.72-20.58,42.33,0,62.11,36L247.92,591q-8.43-16.81-24.88-16.82a23.28,23.28,0,0,0-18.62,8.91q-7,8.5-7,21.37v.4q0,13.65,7.25,22.16A22.76,22.76,0,0,0,223,635.57q16.26,0,25.86-17.41l37.81,21.57Q266,677.14,221.86,677.14,192.27,677.14,172.09,657.34Z"/><path class="cls-1" d="M310,656.36q-21.55-20.79-21.55-51.07v-.39q0-30.28,21.75-51.26,21.54-21,53.29-21,31.55,0,53.29,20.78,21.36,20.77,21.36,51.06v.4q0,30.09-21.55,51.26-21.94,21-53.49,21T310,656.36Zm74.26-29.49q7.63-8.91,7.64-21.58v-.39q0-13.06-7.84-21.77a26.47,26.47,0,0,0-21-9.5q-12.74,0-20.77,9.3a32,32,0,0,0-7.64,21.57v.4q0,13.07,7.84,21.77a26.5,26.5,0,0,0,21,9.5Q376.26,636.17,384.29,626.87Z"/><path class="cls-1" d="M438.37,653.39l24.49-29.49q20.76,16.23,48,16.23,11.76,0,11.76-5.94v-.4q0-5.34-19-9.1Q476,619.16,463.25,611,445.81,600,445.81,580.16v-.4q0-20.58,14.9-33.25,16.05-13.46,43.3-13.45,38.21,0,61.91,19l-22.34,31.27a67.36,67.36,0,0,0-41.14-13.66q-10,0-10,5.74v.39q0,5.36,18.22,8.91,29.38,5.34,42.52,14.25,16,10.89,16.06,30.48v.39q0,21.58-16.46,34.44-16.06,12.47-44.08,12.47Q464.63,676.74,438.37,653.39Z"/><path class="cls-1" d="M578.66,612V535.63h46.63v75.8q0,24.54,21.16,24.54t21.16-23.55V535.63h46.63V611q0,65.91-68.18,65.91Q578.65,676.94,578.66,612Z"/><path class="cls-1" d="M728.74,535.63h61.72q28,0,44.28,12.27,17,13.07,17,37v.39q0,24.56-17.25,38.2-16.65,13.07-45.06,13.06H774.59v37.61H728.74Zm58.19,67.88q19.59,0,19.59-15.24v-.39q0-15.24-19.39-15.24H774.59v30.87Z"/><path class="cls-1" d="M895.68,534.64h45.45l57.8,139.53H949.17l-7.25-18.61h-48l-7,18.61h-49Zm34.87,88.07L918,589.06l-12.54,33.65Z"/><path class="cls-1" d="M975,535.63h51.33L1053,613.41l26.65-77.78h50.55l-55.65,139.53h-43.89Z"/><path class="cls-1" d="M736.76,762.6a22.46,22.46,0,0,1-6.63-16.28v-.16a22.26,22.26,0,0,1,6.71-16.37,24,24,0,0,1,17.67-7q14.49,0,20.21,12.36l-13.33,7.53q-2.46-4.5-6.55-4.5a6.2,6.2,0,0,0-4.91,2.29,8.05,8.05,0,0,0-2,5.56v.17a8.67,8.67,0,0,0,2,5.72,5.65,5.65,0,0,0,4.66,2.3c2.79,0,5.1-1.5,7-4.5l13.5,7.69q-6.54,12.2-21.44,12.19A22.42,22.42,0,0,1,736.76,762.6Z"/><path class="cls-1" d="M782.33,762.6a21.9,21.9,0,0,1-7-16.36v-.16a21.73,21.73,0,0,1,7.11-16.45q7.2-7,18.09-7t18,6.88a21.91,21.91,0,0,1,7,16.36v.17a22,22,0,0,1-7,16.44q-7.2,7-18.16,7A25.22,25.22,0,0,1,782.33,762.6Zm23.32-10.88a7.55,7.55,0,0,0,2.05-5.48v-.16a8.16,8.16,0,0,0-2.13-5.65,6.69,6.69,0,0,0-5.23-2.29,6.6,6.6,0,0,0-5.16,2.29,7.61,7.61,0,0,0-2,5.48v.17a8.15,8.15,0,0,0,2.13,5.64A6.71,6.71,0,0,0,800.5,754,6.59,6.59,0,0,0,805.65,751.72Z"/><path class="cls-1" d="M832.08,765.88q-4.1-3.69-4.09-10.15v-.16q0-6.63,4.58-10.31t12.44-3.6a28.48,28.48,0,0,1,10.56,1.63v-.73q0-6.46-8.27-6.47A32.92,32.92,0,0,0,835,738.63l-3.28-12.36A52.11,52.11,0,0,1,850.49,723q13.1,0,18.91,5.81,4.67,4.66,4.66,14.16v25.44H855.48v-4.5a16.78,16.78,0,0,1-12.84,5.57Q836.09,769.48,832.08,765.88Zm22-9a7.36,7.36,0,0,0,1.64-5V750a11.22,11.22,0,0,0-4.25-.73q-5.73,0-5.73,5v.16a4.07,4.07,0,0,0,1.22,3.11,4.12,4.12,0,0,0,3,1.23A5.2,5.2,0,0,0,854.09,756.88Z"/><path class="cls-1" d="M884.53,762.6a22.46,22.46,0,0,1-6.63-16.28v-.16a22.3,22.3,0,0,1,6.71-16.37,24,24,0,0,1,17.68-7q14.48,0,20.21,12.36l-13.34,7.53c-1.63-3-3.82-4.5-6.55-4.5a6.17,6.17,0,0,0-4.9,2.29,8.06,8.06,0,0,0-2,5.56v.17a8.68,8.68,0,0,0,2,5.72,5.64,5.64,0,0,0,4.66,2.3q4.17,0,7-4.5l13.51,7.69q-6.55,12.2-21.44,12.19A22.43,22.43,0,0,1,884.53,762.6Z"/><path class="cls-1" d="M925.69,708.68h18.57v21q5.57-7,13.67-7,7,0,11.21,4.34,4.1,4.5,4.09,12v29.45H954.66V744.93a6.7,6.7,0,0,0-1.48-4.5,4.76,4.76,0,0,0-3.6-1.56,4.85,4.85,0,0,0-3.68,1.56,6.44,6.44,0,0,0-1.64,4.5v23.48H925.69Z"/><path class="cls-1" d="M978.3,708.68h19.23v11.87H978.3Zm.33,15.06H997.2v44.67H978.63Z"/><path class="cls-1" d="M1002.93,723.74h18.58V730q5.64-7.29,13.66-7.29,7,0,11.21,4.34,4.09,4.5,4.09,12v29.45H1031.9V744.93a6.7,6.7,0,0,0-1.47-4.5,4.79,4.79,0,0,0-3.6-1.56,4.86,4.86,0,0,0-3.69,1.56,6.44,6.44,0,0,0-1.63,4.5v23.48h-18.58Z"/><path class="cls-1" d="M1054.73,776.11l5.72-11.22a34.08,34.08,0,0,0,16.12,4.26q10.64,0,10.64-9.82V758a16.67,16.67,0,0,1-12.93,6.14,19.12,19.12,0,0,1-14.24-5.65q-5.64-5.81-5.64-14.89v-.16q0-9.09,5.56-15.06a17.18,17.18,0,0,1,13.26-5.73,18.36,18.36,0,0,1,13.66,5.81v-4.74h18.58v33.38q0,12.2-5.81,18-6.56,6.55-20.13,6.55A55.41,55.41,0,0,1,1054.73,776.11Zm30.6-27.58a6.75,6.75,0,0,0,2-5v-.17a6.5,6.5,0,0,0-2-4.9,8.14,8.14,0,0,0-10.8,0,6.85,6.85,0,0,0-2,5.07v.16a6.5,6.5,0,0,0,2,4.91,7.62,7.62,0,0,0,5.4,2A7.43,7.43,0,0,0,1085.33,748.53Z"/></g></svg>