<svg xmlns="http://www.w3.org/2000/svg" viewBox="0 0 1130.03 456.59"><defs><style>.cls-1{fill:#36a9e1;}.cls-2{fill:#0077b6;}</style></defs><g id="Capa_4" data-name="Capa 4"><path class="cls-1" d="M104.25,252.45q-21.36-20.37-21.36-52V200q0-30.88,21.16-51.66,21-20.58,51.73-20.58,42.32,0,62.11,36l-37.82,22.36q-8.43-16.82-24.88-16.82-11.17,0-18.62,8.91-7,8.5-7,21.37v.4q0,13.65,7.25,22.16a22.76,22.76,0,0,0,18.42,8.51q16.26,0,25.86-17.41l37.82,21.57Q198.1,272.25,154,272.24,124.43,272.24,104.25,252.45Z"/><path class="cls-1" d="M242.18,251.46q-21.56-20.78-21.55-51.06V200q0-30.28,21.75-51.26,21.56-21,53.29-21,31.54,0,53.3,20.78,21.34,20.77,21.35,51.06v.4q0,30.08-21.55,51.25-21.94,21-53.49,21T242.18,251.46ZM316.44,222q7.65-8.9,7.64-21.57V200q0-13.06-7.83-21.77a26.51,26.51,0,0,0-21-9.5q-12.73,0-20.77,9.3-7.63,8.9-7.64,21.57v.4q0,13.05,7.84,21.77a26.52,26.52,0,0,0,21,9.5Q308.41,231.28,316.44,222Z"/><path class="cls-1" d="M370.52,248.49,395,219q20.78,16.23,48,16.22,11.75,0,11.75-5.93v-.4q0-5.34-19-9.1-27.63-5.53-40.36-13.66Q378,195.06,378,175.27v-.4q0-20.58,14.89-33.25,16.06-13.45,43.3-13.46,38.2,0,61.91,19l-22.33,31.27a67.46,67.46,0,0,0-41.15-13.65q-10,0-10,5.74v.39q0,5.35,18.22,8.91,29.39,5.34,42.52,14.25,16.07,10.89,16.07,30.48v.39q0,21.59-16.46,34.44-16.08,12.47-44.09,12.47Q396.78,271.85,370.52,248.49Z"/><path class="cls-1" d="M510.81,207.13V130.74h46.63v75.8q0,24.54,21.16,24.54t21.16-23.55V130.74h46.63v75.4q0,65.91-68.18,65.91Q510.8,272.05,510.81,207.13Z"/><path class="cls-1" d="M660.89,130.74h61.72q28,0,44.28,12.27,17.05,13.06,17.05,37v.39q0,24.54-17.24,38.2Q750,231.68,721.63,231.67H706.74v37.61H660.89Zm58.19,67.88q19.59,0,19.6-15.24V183q0-15.24-19.4-15.24H706.74v30.87Z"/><path class="cls-1" d="M827.83,129.75h45.45l57.8,139.53H881.32l-7.25-18.61h-48l-7,18.61H770Zm34.87,88.07-12.54-33.65-12.54,33.65Z"/><path class="cls-1" d="M907.18,130.74h51.34l26.64,77.78,26.65-77.78h50.55l-55.64,139.52H962.83Z"/><path class="cls-2" d="M668.91,357.71a22.46,22.46,0,0,1-6.63-16.28v-.16A22.28,22.28,0,0,1,669,324.9a24,24,0,0,1,17.68-7q14.48,0,20.21,12.36l-13.34,7.53q-2.46-4.5-6.55-4.5a6.2,6.2,0,0,0-4.91,2.29,8.05,8.05,0,0,0-2,5.56v.17a8.67,8.67,0,0,0,2,5.72,5.66,5.66,0,0,0,4.67,2.29q4.17,0,7-4.5l13.5,7.7q-6.54,12.18-21.43,12.19A22.43,22.43,0,0,1,668.91,357.71Z"/><path class="cls-2" d="M714.49,357.71a21.87,21.87,0,0,1-7-16.36v-.17a21.7,21.7,0,0,1,7.12-16.44q7.2-7,18.08-7t18,6.87a22,22,0,0,1,7,16.37v.16a22,22,0,0,1-7,16.45q-7.2,7-18.16,7A25.22,25.22,0,0,1,714.49,357.71Zm23.32-10.88a7.6,7.6,0,0,0,2-5.48v-.17a8.19,8.19,0,0,0-2.12-5.64,6.72,6.72,0,0,0-5.24-2.29,6.6,6.6,0,0,0-5.16,2.29,7.59,7.59,0,0,0-2,5.48v.16a8.2,8.2,0,0,0,2.12,5.65,6.71,6.71,0,0,0,5.24,2.29A6.63,6.63,0,0,0,737.81,346.83Z"/><path class="cls-2" d="M764.24,361q-4.1-3.69-4.1-10.15v-.16q0-6.63,4.59-10.31t12.43-3.6a28.41,28.41,0,0,1,10.56,1.63v-.73q0-6.46-8.26-6.47a33,33,0,0,0-12.36,2.54l-3.27-12.36a52,52,0,0,1,18.82-3.27q13.08,0,18.9,5.81,4.66,4.66,4.66,14.16v25.44H787.64V359a16.8,16.8,0,0,1-12.85,5.57Q768.25,364.59,764.24,361Zm22-9a7.36,7.36,0,0,0,1.63-5v-1.88a11.22,11.22,0,0,0-4.25-.73q-5.73,0-5.73,5v.16a4,4,0,0,0,1.23,3.11,4.1,4.1,0,0,0,3,1.23A5.24,5.24,0,0,0,786.25,352Z"/><path class="cls-2" d="M816.69,357.71a22.46,22.46,0,0,1-6.63-16.28v-.16a22.24,22.24,0,0,1,6.71-16.37,24,24,0,0,1,17.67-7q14.49,0,20.21,12.36l-13.34,7.53c-1.63-3-3.82-4.5-6.54-4.5a6.19,6.19,0,0,0-4.91,2.29,8.06,8.06,0,0,0-2,5.56v.17a8.68,8.68,0,0,0,2,5.72,5.65,5.65,0,0,0,4.66,2.29c2.79,0,5.1-1.5,7-4.5l13.5,7.7q-6.56,12.18-21.44,12.19A22.42,22.42,0,0,1,816.69,357.71Z"/><path class="cls-2" d="M857.84,303.79h18.58v21q5.55-7,13.66-7,7,0,11.21,4.34,4.1,4.5,4.09,11.94v29.46H886.81V340a6.66,6.66,0,0,0-1.47-4.5,4.79,4.79,0,0,0-3.61-1.56,4.85,4.85,0,0,0-3.68,1.56,6.44,6.44,0,0,0-1.63,4.5v23.48H857.84Z"/><path class="cls-2" d="M910.45,303.79h19.24v11.86H910.45Zm.33,15h18.58v44.68H910.78Z"/><path class="cls-2" d="M935.09,318.84h18.57v6.22q5.64-7.28,13.66-7.28,7,0,11.22,4.34,4.08,4.5,4.09,11.94v29.46H964.05V340a6.66,6.66,0,0,0-1.47-4.5A4.76,4.76,0,0,0,959,334a4.85,4.85,0,0,0-3.68,1.56,6.44,6.44,0,0,0-1.64,4.5v23.48H935.09Z"/><path class="cls-2" d="M986.88,371.21,992.61,360a34.05,34.05,0,0,0,16.12,4.26q10.63,0,10.63-9.82v-1.31a16.66,16.66,0,0,1-12.92,6.14,19.1,19.1,0,0,1-14.24-5.65q-5.66-5.81-5.65-14.89v-.17a21.22,21.22,0,0,1,5.57-15.05,17.16,17.16,0,0,1,13.25-5.73,18.38,18.38,0,0,1,13.67,5.81v-4.75h18.57v33.39q0,12.19-5.81,18-6.54,6.56-20.13,6.55A55.31,55.31,0,0,1,986.88,371.21Zm30.6-27.57a6.76,6.76,0,0,0,2-5v-.17a6.55,6.55,0,0,0-2.05-4.91,8.17,8.17,0,0,0-10.8,0,6.93,6.93,0,0,0-2.05,5.08v.16a6.55,6.55,0,0,0,2.05,4.91,7.65,7.65,0,0,0,5.4,2A7.41,7.41,0,0,0,1017.48,343.64Z"/></g></svg>