<svg xmlns="http://www.w3.org/2000/svg" viewBox="0 0 1275.59 1275.59"><defs><style>.cls-1{fill:#fff;}</style></defs><g id="Capa_4" data-name="Capa 4"><path class="cls-1" d="M360.38,741.8q-12.78-12.19-12.77-31.13v-.23q0-18.47,12.65-30.9t30.93-12.3q25.31,0,37.15,21.54l-22.62,13.37q-5-10-14.88-10.06a13.93,13.93,0,0,0-11.13,5.33,19.36,19.36,0,0,0-4.22,12.78v.24q0,8.16,4.34,13.25a13.62,13.62,0,0,0,11,5.09q9.72,0,15.47-10.41l22.61,12.9q-12.42,22.37-38.78,22.36Q372.44,753.63,360.38,741.8Z"/><path class="cls-1" d="M442.87,741.21A40.76,40.76,0,0,1,430,710.67v-.23a41,41,0,0,1,13-30.66q12.88-12.54,31.87-12.54t31.87,12.42a40.94,40.94,0,0,1,12.77,30.54v.24a41.38,41.38,0,0,1-12.88,30.65q-13.12,12.54-32,12.54T442.87,741.21Zm44.4-17.64a19.12,19.12,0,0,0,4.57-12.9v-.23a18.75,18.75,0,0,0-4.68-13,15.86,15.86,0,0,0-12.54-5.68,15.63,15.63,0,0,0-12.42,5.56,19.12,19.12,0,0,0-4.57,12.9v.24a18.7,18.7,0,0,0,4.69,13,15.83,15.83,0,0,0,12.53,5.69A15.64,15.64,0,0,0,487.27,723.57Z"/><path class="cls-1" d="M519.61,739.43l14.65-17.63a45.3,45.3,0,0,0,28.7,9.7q7,0,7-3.55v-.24q0-3.19-11.37-5.44-16.51-3.32-24.14-8.17-10.43-6.61-10.43-18.46v-.24q0-12.3,8.91-19.88,9.6-8,25.89-8,22.86,0,37,11.37l-13.36,18.69a40.32,40.32,0,0,0-24.6-8.16q-6,0-6,3.43V693q0,3.19,10.9,5.32,17.58,3.2,25.42,8.53a20.77,20.77,0,0,1,9.61,18.22v.24q0,12.9-9.84,20.59-9.62,7.45-26.36,7.46Q535.31,753.4,519.61,739.43Z"/><path class="cls-1" d="M603.5,714.7V669h27.89v45.33q0,14.68,12.66,14.68t12.65-14.09V669h27.89V714.1q0,39.42-40.78,39.42Q603.51,753.52,603.5,714.7Z"/><path class="cls-1" d="M693.26,669h36.91q16.74,0,26.48,7.34,10.19,7.81,10.19,22.13v.24q0,14.67-10.31,22.84-10,7.82-26.95,7.81h-8.91v22.49H693.26Zm34.8,40.6q11.72,0,11.71-9.12v-.23q0-9.12-11.6-9.12h-7.5v18.47Z"/><path class="cls-1" d="M793.09,668.42h27.18l34.56,83.44H825.07l-4.33-11.13H792l-4.22,11.13H758.52Zm20.85,52.67L806.44,701l-7.5,20.12Z"/><path class="cls-1" d="M840.54,669h30.7l15.93,46.51L903.11,669h30.23l-33.28,83.44H873.82Z"/><path class="cls-1" d="M783.22,573.48c-7.13,8-15,15.67-21.18,22.57l-58.39-57.29c19.64-19,39-37.8,58.52-56.72,6.27,6.73,13.49,14.45,21.08,22.59-12.81,12.13-24.17,22.88-36.61,35.12C760.72,553.2,769.82,561.13,783.22,573.48Z"/><path class="cls-1" d="M592.89,533.94c4.27-3.81,13-10.54,26.82-16.26a69.23,69.23,0,0,1,12.47-23.15c18.77-23,54.74-36,91.63-14.19l22.44-22.61c-33.67-31.7-97-27.41-132.79,9a102.8,102.8,0,0,0-29,63A87.4,87.4,0,0,1,592.89,533.94Z"/><path class="cls-1" d="M723.55,598.06c-38,18-71,12.2-92.87-16.5a69.18,69.18,0,0,1-10.21-18.91,182.56,182.56,0,0,0-10,16.49l-3.06,5.66-4.73-4.37c-2.22-2-4.35-4.14-6.61-6.36-2.75-2.71-5.57-5.48-8.59-8.2a101.71,101.71,0,0,0,23.89,43.33c35.58,38.27,98.53,43.59,135,11.17C738.8,613,731.23,605.58,723.55,598.06Z"/><path class="cls-1" d="M606.1,576.76c-19.54-18.06-37.61-45-106.18-38.71,51.24-28,93.64,2.21,93.64,2.21s33.18-37.23,111-25.44C656.24,524.78,632.64,527.73,606.1,576.76Z"/><path class="cls-1" d="M698.05,804.75a13.47,13.47,0,0,1-4-9.74v-.1a13.31,13.31,0,0,1,4-9.79,14.34,14.34,0,0,1,10.57-4.2q8.66,0,12.09,7.38l-8,4.51c-1-1.8-2.28-2.7-3.92-2.7a3.71,3.71,0,0,0-2.93,1.37,4.86,4.86,0,0,0-1.18,3.33v.1a5.23,5.23,0,0,0,1.18,3.43,3.4,3.4,0,0,0,2.79,1.37,4.85,4.85,0,0,0,4.16-2.7l8.07,4.6q-3.91,7.29-12.82,7.3A13.45,13.45,0,0,1,698.05,804.75Z"/><path class="cls-1" d="M725.31,804.75A13.1,13.1,0,0,1,721.1,795v-.1a13,13,0,0,1,4.26-9.83,16.13,16.13,0,0,1,21.57,0,13.08,13.08,0,0,1,4.21,9.78v.1a13.16,13.16,0,0,1-4.21,9.84,16.2,16.2,0,0,1-21.62,0Zm13.94-6.51a4.52,4.52,0,0,0,1.23-3.28v-.1a4.91,4.91,0,0,0-1.28-3.38,4,4,0,0,0-3.13-1.37,4,4,0,0,0-3.08,1.37,4.53,4.53,0,0,0-1.22,3.28v.1a4.88,4.88,0,0,0,1.27,3.38,4,4,0,0,0,3.13,1.37A4,4,0,0,0,739.25,798.24Z"/><path class="cls-1" d="M755.06,806.7a7.76,7.76,0,0,1-2.45-6.07v-.09a7.46,7.46,0,0,1,2.74-6.17,11.78,11.78,0,0,1,7.44-2.15,17,17,0,0,1,6.31,1v-.44q0-3.87-4.94-3.87a19.7,19.7,0,0,0-7.39,1.52l-2-7.39a31,31,0,0,1,11.26-2q7.83,0,11.3,3.48,2.79,2.79,2.79,8.46v15.22H769.05v-2.69a10,10,0,0,1-7.68,3.33A9.05,9.05,0,0,1,755.06,806.7Zm13.16-5.38a4.39,4.39,0,0,0,1-3v-1.13a6.8,6.8,0,0,0-2.55-.44q-3.42,0-3.42,3v.1a2.41,2.41,0,0,0,.73,1.86,2.47,2.47,0,0,0,1.81.74A3.12,3.12,0,0,0,768.22,801.32Z"/><path class="cls-1" d="M786.42,804.75a13.47,13.47,0,0,1-4-9.74v-.1a13.35,13.35,0,0,1,4-9.79,14.36,14.36,0,0,1,10.57-4.2q8.65,0,12.09,7.38l-8,4.51q-1.47-2.7-3.91-2.7a3.71,3.71,0,0,0-2.94,1.37,4.85,4.85,0,0,0-1.17,3.33v.1a5.23,5.23,0,0,0,1.17,3.43,3.4,3.4,0,0,0,2.79,1.37,4.85,4.85,0,0,0,4.16-2.7l8.07,4.6q-3.92,7.29-12.82,7.3A13.45,13.45,0,0,1,786.42,804.75Z"/><path class="cls-1" d="M811,772.5h11.11v12.57a10.07,10.07,0,0,1,8.17-4.2,8.88,8.88,0,0,1,6.71,2.59,10.21,10.21,0,0,1,2.44,7.14v17.62h-11.1v-14a4.06,4.06,0,0,0-.88-2.7,2.9,2.9,0,0,0-2.16-.93,2.94,2.94,0,0,0-2.2.93,3.88,3.88,0,0,0-1,2.7v14H811Z"/><path class="cls-1" d="M842.5,772.5H854v7.09H842.5Zm.19,9H853.8v26.72H842.69Z"/><path class="cls-1" d="M857.23,781.5h11.1v3.72q3.39-4.35,8.18-4.35a8.86,8.86,0,0,1,6.7,2.59,10.22,10.22,0,0,1,2.45,7.14v17.62H874.55v-14a4,4,0,0,0-.88-2.7,2.9,2.9,0,0,0-2.15-.93,3,3,0,0,0-2.21.93,3.88,3.88,0,0,0-1,2.7v14h-11.1Z"/><path class="cls-1" d="M888.2,812.82l3.43-6.7a20.44,20.44,0,0,0,9.64,2.54q6.36,0,6.36-5.87V802a10,10,0,0,1-7.73,3.66,11.45,11.45,0,0,1-8.52-3.37,12.27,12.27,0,0,1-3.38-8.91v-.09a12.69,12.69,0,0,1,3.33-9,10.29,10.29,0,0,1,7.93-3.42,11,11,0,0,1,8.17,3.47V781.5h11.11v20q0,7.29-3.48,10.76-3.91,3.91-12,3.92A33,33,0,0,1,888.2,812.82Zm18.3-16.49a4.06,4.06,0,0,0,1.18-3v-.09a3.89,3.89,0,0,0-1.23-2.94,4.89,4.89,0,0,0-6.46,0,4.15,4.15,0,0,0-1.22,3v.1a3.93,3.93,0,0,0,1.22,2.94,4.6,4.6,0,0,0,3.23,1.17A4.45,4.45,0,0,0,906.5,796.33Z"/></g></svg>